<svg version="1.1" xmlns="http://www.w3.org/2000/svg" xmlns:xlink="http://www.w3.org/1999/xlink" width="2033.5151515151515" height="1429.090909090909"><defs/><g transform="translate(0,0)"><g><rect fill="#FFFFFF" stroke="none" x="0" y="0" width="2033.5151515151515" height="1429.090909090909"/></g><g transform="translate(0,0) matrix(1,0,0,1,851.5151515151515,59.09090909090909)"><g><g transform="translate(0,0) scale(3,1.53)"><g><path fill="#FFFFFF" stroke="none" d="M 0 0 L 100 0 Q 100 0 100 0 L 100 100 Q 100 100 100 100 L 0 100 Q 0 100 0 100 L 0 0 Q 0 0 0 0 Z"/><g transform="scale(0.3333333333333333,0.6535947712418301)"><path fill="none" stroke="none" d="M 0 0 L 300 0 Q 300 0 300 0 L 300 153 Q 300 153 300 153 L 0 153 Q 0 153 0 153 L 0 0 Q 0 0 0 0 Z"/><path fill="none" stroke="#333333" d="M 0 0 M 0 0 L 300 0 Q 300 0 300 0 L 300 153 Q 300 153 300 153 L 0 153 Q 0 153 0 153 L 0 0 Q 0 0 0 0 Z" stroke-miterlimit="10" stroke-width="2"/></g></g></g></g></g><g transform="scale(1,1) matrix(1,0,0,1,857.5151515151515,59.09090909090909) translate(8,9.5)"><text fill="#000000" stroke="none" font-family="Arial" font-size="20px" font-style="normal" font-weight="bold" text-decoration="none" x="50.50000000000003" y="20">StaticGameObject</text><text fill="#000000" stroke="none" font-family="Arial" font-size="12px" font-style="normal" font-weight="normal" text-decoration="none" x="0" y="31">Класс описывает статический объект игры </text><text fill="#000000" stroke="none" font-family="Arial" font-size="12px" font-style="normal" font-weight="normal" text-decoration="none" x="0" y="45">(который не меняет своего местоположения </text><text fill="#000000" stroke="none" font-family="Arial" font-size="12px" font-style="normal" font-weight="normal" text-decoration="none" x="0" y="59">по ходу игры)</text><text fill="#000000" stroke="none" font-family="Arial" font-size="12px" font-style="normal" font-weight="normal" text-decoration="none" x="0" y="73">Основные методы, реализуемые классом:</text><text fill="#000000" stroke="none" font-family="Arial" font-size="12px" font-style="italic" font-weight="normal" text-decoration="none" x="0" y="87">refresh()</text><text fill="#000000" stroke="none" font-family="Arial" font-size="12px" font-style="normal" font-weight="normal" text-decoration="none" x="46" y="87"> - обновить состояние объекта</text><text fill="#000000" stroke="none" font-family="Arial" font-size="12px" font-style="italic" font-weight="normal" text-decoration="none" x="0" y="101">repaint()</text><text fill="#000000" stroke="none" font-family="Arial" font-size="12px" font-style="normal" font-weight="normal" text-decoration="none" x="46" y="101"> - нарисовать объект</text><text fill="#000000" stroke="none" font-family="Arial" font-size="12px" font-style="italic" font-weight="normal" text-decoration="none" x="0" y="115">show()</text><text fill="#000000" stroke="none" font-family="Arial" font-size="12px" font-style="normal" font-weight="normal" text-decoration="none" x="36" y="115"> - отобразить объект</text><text fill="#000000" stroke="none" font-family="Arial" font-size="12px" font-style="italic" font-weight="normal" text-decoration="none" x="0" y="129">hide()</text><text fill="#000000" stroke="none" font-family="Arial" font-size="12px" font-style="normal" font-weight="normal" text-decoration="none" x="32" y="129"> - скрыть объект</text></g><g transform="translate(0,0) matrix(1,0,0,1,171.5151515151515,309.0909090909091)"><g><g transform="translate(0,0) scale(3,1.4)"><g><path fill="#FFFFFF" stroke="none" d="M 0 0 L 100 0 Q 100 0 100 0 L 100 100 Q 100 100 100 100 L 0 100 Q 0 100 0 100 L 0 0 Q 0 0 0 0 Z"/><g transform="scale(0.3333333333333333,0.7142857142857143)"><path fill="none" stroke="none" d="M 0 0 L 300 0 Q 300 0 300 0 L 300 140 Q 300 140 300 140 L 0 140 Q 0 140 0 140 L 0 0 Q 0 0 0 0 Z"/><path fill="none" stroke="#333333" d="M 0 0 M 0 0 L 300 0 Q 300 0 300 0 L 300 140 Q 300 140 300 140 L 0 140 Q 0 140 0 140 L 0 0 Q 0 0 0 0 Z" stroke-miterlimit="10" stroke-width="2"/></g></g></g></g></g><g transform="scale(1,1) matrix(1,0,0,1,177.5151515151515,309.0909090909091) translate(8,17)"><text fill="#000000" stroke="none" font-family="Arial" font-size="20px" font-style="normal" font-weight="bold" text-decoration="none" x="37.00000000000003" y="20">DynamicGameObject</text><text fill="#000000" stroke="none" font-family="Arial" font-size="12px" font-style="normal" font-weight="normal" text-decoration="none" x="0" y="31">Класс описывает динамический объект игры </text><text fill="#000000" stroke="none" font-family="Arial" font-size="12px" font-style="normal" font-weight="normal" text-decoration="none" x="0" y="45">(меняющий свою положение с течением </text><text fill="#000000" stroke="none" font-family="Arial" font-size="12px" font-style="normal" font-weight="normal" text-decoration="none" x="0" y="59">времени).</text><text fill="#000000" stroke="none" font-family="Arial" font-size="12px" font-style="normal" font-weight="normal" text-decoration="none" x="0" y="73">Основные методы, реализуемые классом:</text><text fill="#000000" stroke="none" font-family="Arial" font-size="12px" font-style="italic" font-weight="normal" text-decoration="none" x="0" y="87">set_speed(x, y)</text><text fill="#000000" stroke="none" font-family="Arial" font-size="12px" font-style="normal" font-weight="normal" text-decoration="none" x="83" y="87"> - назначить вектор скорости</text><text fill="#000000" stroke="none" font-family="Arial" font-size="12px" font-style="italic" font-weight="normal" text-decoration="none" x="0" y="101">get_speed()</text><text fill="#000000" stroke="none" font-family="Arial" font-size="12px" font-style="normal" font-weight="normal" text-decoration="none" x="66" y="101"> - получить вектор скорости</text></g><g transform="translate(0,0) matrix(1,0,0,1,1.5151515151515014,549.0909090909091)"><g><g transform="translate(0,0) scale(3,1)"><g><path fill="#FFFFFF" stroke="none" d="M 0 0 L 100 0 Q 100 0 100 0 L 100 100 Q 100 100 100 100 L 0 100 Q 0 100 0 100 L 0 0 Q 0 0 0 0 Z"/><g transform="scale(0.3333333333333333,1)"><path fill="none" stroke="none" d="M 0 0 L 300 0 Q 300 0 300 0 L 300 100 Q 300 100 300 100 L 0 100 Q 0 100 0 100 L 0 0 Q 0 0 0 0 Z"/><path fill="none" stroke="#333333" d="M 0 0 M 0 0 L 300 0 Q 300 0 300 0 L 300 100 Q 300 100 300 100 L 0 100 Q 0 100 0 100 L 0 0 Q 0 0 0 0 Z" stroke-miterlimit="10" stroke-width="2"/></g></g></g></g></g><g transform="scale(1,1) matrix(1,0,0,1,7.515151515151501,549.0909090909091) translate(8,18)"><text fill="#000000" stroke="none" font-family="Arial" font-size="20px" font-style="normal" font-weight="bold" text-decoration="none" x="118.50000000000003" y="20">Ball</text><text fill="#000000" stroke="none" font-family="Arial" font-size="12px" font-style="normal" font-weight="normal" text-decoration="none" x="0" y="31">Класс описывает поведение игрового меча.</text><text fill="#000000" stroke="none" font-family="Arial" font-size="12px" font-style="normal" font-weight="normal" text-decoration="none" x="0" y="45">При вызове refresh обрабатываются </text><text fill="#000000" stroke="none" font-family="Arial" font-size="12px" font-style="normal" font-weight="normal" text-decoration="none" x="0" y="59">столкновения со всеми игровыми объектами.</text></g><g transform="translate(0,0) matrix(1,0,0,1,361.5151515151515,549.0909090909091)"><g><g transform="translate(0,0) scale(3,1)"><g><path fill="#FFFFFF" stroke="none" d="M 0 0 L 100 0 Q 100 0 100 0 L 100 100 Q 100 100 100 100 L 0 100 Q 0 100 0 100 L 0 0 Q 0 0 0 0 Z"/><g transform="scale(0.3333333333333333,1)"><path fill="none" stroke="none" d="M 0 0 L 300 0 Q 300 0 300 0 L 300 100 Q 300 100 300 100 L 0 100 Q 0 100 0 100 L 0 0 Q 0 0 0 0 Z"/><path fill="none" stroke="#333333" d="M 0 0 M 0 0 L 300 0 Q 300 0 300 0 L 300 100 Q 300 100 300 100 L 0 100 Q 0 100 0 100 L 0 0 Q 0 0 0 0 Z" stroke-miterlimit="10" stroke-width="2"/></g></g></g></g></g><g transform="scale(1,1) matrix(1,0,0,1,367.5151515151515,549.0909090909091) translate(8,32)"><text fill="#000000" stroke="none" font-family="Arial" font-size="20px" font-style="normal" font-weight="bold" text-decoration="none" x="110.00000000000003" y="20">Panel</text><text fill="#000000" stroke="none" font-family="Arial" font-size="12px" font-style="normal" font-weight="normal" text-decoration="none" x="0" y="31">Класс описывает поведение игровой доски</text><text fill="#000000" stroke="none" font-family="Arial" font-size="12px" font-style="normal" font-weight="normal" text-decoration="none" x="246" y="31">.</text></g><g transform="matrix(1,0,0,1,147.0151515151515,444.5909090909091)"><g transform="translate(0,0)"><g transform="translate(-261.5151515151515,-453.0909090909091) translate(114.5,8.5) matrix(1,0,0,1,0,0)"><g><path fill="none" stroke="#000000" d="M 259.38311715918724 449.0909090909091 L 259.38311715918724 489.0909090909091 Q 259.38311715918724 499.0909090909091 249.38311715918724 499.0909090909091 L 161.5151515151515 499.0909090909091 Q 151.5151515151515 499.0909090909091 151.5151515151515 509.0909090909091 L 151.5151515151515 549.0909090909091" stroke-miterlimit="10" stroke-width="2"/></g></g></g></g><g transform="matrix(1,0,0,1,379.14718587111577,444.5909090909091)"><g transform="translate(0,0)"><g transform="translate(-380.5151515151515,-453.0909090909091) translate(1.3679656440357348,8.5) matrix(1,0,0,1,0,0)"><g><path fill="none" stroke="#000000" d="M 383.64718587111577 449.0909090909091 L 383.64718587111577 489.0909090909091 Q 383.64718587111577 499.0909090909091 393.64718587111577 499.0909090909091 L 501.5151515151515 499.0909090909091 Q 511.5151515151515 499.0909090909091 511.5151515151515 509.0909090909091 L 511.5151515151515 549.0909090909091" stroke-miterlimit="10" stroke-width="2"/></g></g></g></g><g transform="matrix(1,0,0,1,317.0151515151515,207.5909090909091)"><g transform="translate(0,0)"><g transform="translate(-538.5151515151515,-235.09090909090912) translate(221.5,27.50000000000003) matrix(1,0,0,1,0,0)"><g><path fill="none" stroke="#000000" d="M 1001.5151515151515 212.0909090909091 L 1001.5151515151515 250.59090909090912 Q 1001.5151515151515 260.5909090909091 991.5151515151515 260.5909090909091 L 331.5151515151515 260.5909090909091 Q 321.5151515151515 260.5909090909091 321.5151515151515 270.5909090909091 L 321.5151515151515 309.0909090909091" stroke-miterlimit="10" stroke-width="2"/></g></g></g></g><g transform="translate(0,0) matrix(1,0,0,1,511.5151515151515,309.0909090909091)"><g><g transform="translate(0,0) scale(3,1.4)"><g><path fill="#FFFFFF" stroke="none" d="M 0 0 L 100 0 Q 100 0 100 0 L 100 100 Q 100 100 100 100 L 0 100 Q 0 100 0 100 L 0 0 Q 0 0 0 0 Z"/><g transform="scale(0.3333333333333333,0.7142857142857143)"><path fill="none" stroke="none" d="M 0 0 L 300 0 Q 300 0 300 0 L 300 140 Q 300 140 300 140 L 0 140 Q 0 140 0 140 L 0 0 Q 0 0 0 0 Z"/><path fill="none" stroke="#333333" d="M 0 0 M 0 0 L 300 0 Q 300 0 300 0 L 300 140 Q 300 140 300 140 L 0 140 Q 0 140 0 140 L 0 0 Q 0 0 0 0 Z" stroke-miterlimit="10" stroke-width="2"/></g></g></g></g></g><g transform="scale(1,1) matrix(1,0,0,1,517.5151515151515,309.0909090909091) translate(8,24)"><text fill="#000000" stroke="none" font-family="Arial" font-size="20px" font-style="normal" font-weight="bold" text-decoration="none" x="109.50000000000003" y="20">Block</text><text fill="#000000" stroke="none" font-family="Arial" font-size="12px" font-style="normal" font-weight="normal" text-decoration="none" x="0" y="31">Класс описывает игровой блок.</text><text fill="#000000" stroke="none" font-family="Arial" font-size="12px" font-style="normal" font-weight="normal" text-decoration="none" x="0" y="45">Основные поля:</text><text fill="#000000" stroke="none" font-family="Arial" font-size="12px" font-style="italic" font-weight="normal" text-decoration="none" x="0" y="59">lives</text><text fill="#000000" stroke="none" font-family="Arial" font-size="12px" font-style="normal" font-weight="normal" text-decoration="none" x="25" y="59"> - количество жизней блока</text><text fill="#000000" stroke="none" font-family="Arial" font-size="12px" font-style="normal" font-weight="normal" text-decoration="none" x="0" y="73">Основные методы:</text><text fill="#000000" stroke="none" font-family="Arial" font-size="12px" font-style="italic" font-weight="normal" text-decoration="none" x="0" y="87">on_hit()</text><text fill="#000000" stroke="none" font-family="Arial" font-size="12px" font-style="normal" font-weight="normal" text-decoration="none" x="42" y="87"> - обработчик попадания по блоку</text><text fill="#000000" stroke="none" font-family="Arial" font-size="12px" font-style="normal" font-weight="normal" text-decoration="none" x="236" y="87">&#160;</text><text fill="#000000" stroke="none" font-family="Arial" font-size="12px" font-style="normal" font-weight="normal" text-decoration="none" x="239" y="87">&#160;</text></g><g transform="matrix(1,0,0,1,657.0151515151515,207.5909090909091)"><g transform="translate(0,0)"><g transform="translate(-541.5151515151515,-233.09090909090912) translate(-115.5,25.50000000000003) matrix(1,0,0,1,0,0)"><g><path fill="none" stroke="#000000" d="M 1001.5151515151515 212.0909090909091 L 1001.5151515151515 250.59090909090912 Q 1001.5151515151515 260.5909090909091 991.5151515151515 260.5909090909091 L 671.5151515151515 260.5909090909091 Q 661.5151515151515 260.5909090909091 661.5151515151515 270.5909090909091 L 661.5151515151515 309.0909090909091" stroke-miterlimit="10" stroke-width="2"/></g></g></g></g><g transform="translate(0,0) matrix(1,0,0,1,851.5151515151515,309.0909090909091)"><g><g transform="translate(0,0) scale(3,1.4)"><g><path fill="#FFFFFF" stroke="none" d="M 0 0 L 100 0 Q 100 0 100 0 L 100 100 Q 100 100 100 100 L 0 100 Q 0 100 0 100 L 0 0 Q 0 0 0 0 Z"/><g transform="scale(0.3333333333333333,0.7142857142857143)"><path fill="none" stroke="none" d="M 0 0 L 300 0 Q 300 0 300 0 L 300 140 Q 300 140 300 140 L 0 140 Q 0 140 0 140 L 0 0 Q 0 0 0 0 Z"/><path fill="none" stroke="#333333" d="M 0 0 M 0 0 L 300 0 Q 300 0 300 0 L 300 140 Q 300 140 300 140 L 0 140 Q 0 140 0 140 L 0 0 Q 0 0 0 0 Z" stroke-miterlimit="10" stroke-width="2"/></g></g></g></g></g><g transform="scale(1,1) matrix(1,0,0,1,857.5151515151515,309.0909090909091) translate(8,38)"><text fill="#000000" stroke="none" font-family="Arial" font-size="20px" font-style="normal" font-weight="bold" text-decoration="none" x="110.00000000000003" y="20">Menu</text><text fill="#000000" stroke="none" font-family="Arial" font-size="12px" font-style="normal" font-weight="normal" text-decoration="none" x="0" y="31">Класс о</text><text fill="#000000" stroke="none" font-family="Arial" font-size="12px" font-style="normal" font-weight="normal" text-decoration="none" x="43" y="31">писывает правила отрисовки и </text><text fill="#000000" stroke="none" font-family="Arial" font-size="12px" font-style="normal" font-weight="normal" text-decoration="none" x="0" y="45">обновления меню. Содержит набор опций и их </text><text fill="#000000" stroke="none" font-family="Arial" font-size="12px" font-style="normal" font-weight="normal" text-decoration="none" x="0" y="59">обработчики.</text><text fill="#000000" stroke="none" font-family="Arial" font-size="12px" font-style="normal" font-weight="normal" text-decoration="none" x="76" y="59">&#160;</text><text fill="#000000" stroke="none" font-family="Arial" font-size="12px" font-style="normal" font-weight="normal" text-decoration="none" x="79" y="59">&#160;</text></g><g transform="translate(0,0) matrix(1,0,0,1,1191.5151515151515,309.0909090909091)"><g><g transform="translate(0,0) scale(3,1.4)"><g><path fill="#FFFFFF" stroke="none" d="M 0 0 L 100 0 Q 100 0 100 0 L 100 100 Q 100 100 100 100 L 0 100 Q 0 100 0 100 L 0 0 Q 0 0 0 0 Z"/><g transform="scale(0.3333333333333333,0.7142857142857143)"><path fill="none" stroke="none" d="M 0 0 L 300 0 Q 300 0 300 0 L 300 140 Q 300 140 300 140 L 0 140 Q 0 140 0 140 L 0 0 Q 0 0 0 0 Z"/><path fill="none" stroke="#333333" d="M 0 0 M 0 0 L 300 0 Q 300 0 300 0 L 300 140 Q 300 140 300 140 L 0 140 Q 0 140 0 140 L 0 0 Q 0 0 0 0 Z" stroke-miterlimit="10" stroke-width="2"/></g></g></g></g></g><g transform="scale(1,1) matrix(1,0,0,1,1197.5151515151515,309.0909090909091) translate(8,45)"><text fill="#000000" stroke="none" font-family="Arial" font-size="20px" font-style="normal" font-weight="bold" text-decoration="none" x="66.50000000000003" y="20">LivesIndecator</text><text fill="#000000" stroke="none" font-family="Arial" font-size="12px" font-style="normal" font-weight="normal" text-decoration="none" x="0" y="31">Класс описывает отрисовки и обновления </text><text fill="#000000" stroke="none" font-family="Arial" font-size="12px" font-style="normal" font-weight="normal" text-decoration="none" x="0" y="45">индикатора жизней игрока.</text></g><g transform="matrix(1,0,0,1,997.0151515151515,207.5909090909091)"><g transform="translate(0,0)"><g transform="translate(-1106.5151515151515,-216.09090909090912) translate(109.5,8.500000000000028) matrix(1,0,0,1,0,0)"><g><path fill="none" stroke="#000000" d="M 1001.5151515151515 212.0909090909091 L 1001.5151515151515 309.0909090909091" stroke-miterlimit="10" stroke-width="2"/></g></g></g></g><g transform="translate(0,0) matrix(1,0,0,1,1531.5151515151515,309.0909090909091)"><g><g transform="translate(0,0) scale(3,1.4)"><g><path fill="#FFFFFF" stroke="none" d="M 0 0 L 100 0 Q 100 0 100 0 L 100 100 Q 100 100 100 100 L 0 100 Q 0 100 0 100 L 0 0 Q 0 0 0 0 Z"/><g transform="scale(0.3333333333333333,0.7142857142857143)"><path fill="none" stroke="none" d="M 0 0 L 300 0 Q 300 0 300 0 L 300 140 Q 300 140 300 140 L 0 140 Q 0 140 0 140 L 0 0 Q 0 0 0 0 Z"/><path fill="none" stroke="#333333" d="M 0 0 M 0 0 L 300 0 Q 300 0 300 0 L 300 140 Q 300 140 300 140 L 0 140 Q 0 140 0 140 L 0 0 Q 0 0 0 0 Z" stroke-miterlimit="10" stroke-width="2"/></g></g></g></g></g><g transform="scale(1,1) matrix(1,0,0,1,1537.5151515151515,309.0909090909091) translate(8,31)"><text fill="#000000" stroke="none" font-family="Arial" font-size="20px" font-style="normal" font-weight="bold" text-decoration="none" x="110.50000000000003" y="20">Label</text><text fill="#000000" stroke="none" font-family="Arial" font-size="12px" font-style="normal" font-weight="normal" text-decoration="none" x="0" y="31">Класс описывает правила отрисовки </text><text fill="#000000" stroke="none" font-family="Arial" font-size="12px" font-style="normal" font-weight="normal" text-decoration="none" x="0" y="45">информационных окон, содержащих </text><text fill="#000000" stroke="none" font-family="Arial" font-size="12px" font-style="normal" font-weight="normal" text-decoration="none" x="0" y="59">сообщения о том, что игрок выиграл, проиграл </text><text fill="#000000" stroke="none" font-family="Arial" font-size="12px" font-style="normal" font-weight="normal" text-decoration="none" x="0" y="73">и т.д.</text><text fill="#000000" stroke="none" font-family="Arial" font-size="12px" font-style="normal" font-weight="normal" text-decoration="none" x="28" y="73">&#160;</text></g><g transform="matrix(1,0,0,1,997.0151515151515,207.5909090909091)"><g transform="translate(0,0)"><g transform="translate(-999.5151515151515,-215.09090909090912) translate(2.5,7.500000000000028) matrix(1,0,0,1,0,0)"><g><path fill="none" stroke="#000000" d="M 1001.5151515151515 212.0909090909091 L 1001.5151515151515 250.59090909090912 Q 1001.5151515151515 260.5909090909091 1011.5151515151515 260.5909090909091 L 1331.5151515151515 260.5909090909091 Q 1341.5151515151515 260.5909090909091 1341.5151515151515 270.5909090909091 L 1341.5151515151515 309.0909090909091" stroke-miterlimit="10" stroke-width="2"/></g></g></g></g><g transform="matrix(1,0,0,1,997.0151515151515,207.5909090909091)"><g transform="translate(0,0)"><g transform="translate(-996.5151515151515,-213.09090909090912) translate(-0.5,5.500000000000028) matrix(1,0,0,1,0,0)"><g><path fill="none" stroke="#000000" d="M 1001.5151515151515 212.0909090909091 L 1001.5151515151515 250.59090909090912 Q 1001.5151515151515 260.5909090909091 1011.5151515151515 260.5909090909091 L 1671.5151515151515 260.5909090909091 Q 1681.5151515151515 260.5909090909091 1681.5151515151515 270.5909090909091 L 1681.5151515151515 309.0909090909091" stroke-miterlimit="10" stroke-width="2"/></g></g></g></g><g transform="translate(0,0) matrix(1,0,0,1,1351.5151515151515,549.0909090909091)"><g><g transform="translate(0,0) scale(3,1)"><g><path fill="#FFFFFF" stroke="none" d="M 0 0 L 100 0 Q 100 0 100 0 L 100 100 Q 100 100 100 100 L 0 100 Q 0 100 0 100 L 0 0 Q 0 0 0 0 Z"/><g transform="scale(0.3333333333333333,1)"><path fill="none" stroke="none" d="M 0 0 L 300 0 Q 300 0 300 0 L 300 100 Q 300 100 300 100 L 0 100 Q 0 100 0 100 L 0 0 Q 0 0 0 0 Z"/><path fill="none" stroke="#333333" d="M 0 0 M 0 0 L 300 0 Q 300 0 300 0 L 300 100 Q 300 100 300 100 L 0 100 Q 0 100 0 100 L 0 0 Q 0 0 0 0 Z" stroke-miterlimit="10" stroke-width="2"/></g></g></g></g></g><g transform="scale(1,1) matrix(1,0,0,1,1357.5151515151515,549.0909090909091) translate(8,32)"><text fill="#000000" stroke="none" font-family="Arial" font-size="20px" font-style="normal" font-weight="bold" text-decoration="none" x="92.50000000000003" y="20">WinLabel</text><text fill="#000000" stroke="none" font-family="Arial" font-size="12px" font-style="normal" font-weight="normal" text-decoration="none" x="0" y="31">Сообщение о выигыше.</text></g><g transform="translate(0,0) matrix(1,0,0,1,1711.5151515151515,549.0909090909091)"><g><g transform="translate(0,0) scale(3,1)"><g><path fill="#FFFFFF" stroke="none" d="M 0 0 L 100 0 Q 100 0 100 0 L 100 100 Q 100 100 100 100 L 0 100 Q 0 100 0 100 L 0 0 Q 0 0 0 0 Z"/><g transform="scale(0.3333333333333333,1)"><path fill="none" stroke="none" d="M 0 0 L 300 0 Q 300 0 300 0 L 300 100 Q 300 100 300 100 L 0 100 Q 0 100 0 100 L 0 0 Q 0 0 0 0 Z"/><path fill="none" stroke="#333333" d="M 0 0 M 0 0 L 300 0 Q 300 0 300 0 L 300 100 Q 300 100 300 100 L 0 100 Q 0 100 0 100 L 0 0 Q 0 0 0 0 Z" stroke-miterlimit="10" stroke-width="2"/></g></g></g></g></g><g transform="scale(1,1) matrix(1,0,0,1,1717.5151515151515,549.0909090909091) translate(8,32)"><text fill="#000000" stroke="none" font-family="Arial" font-size="20px" font-style="normal" font-weight="bold" text-decoration="none" x="87.50000000000003" y="20">LoseLabel</text><text fill="#000000" stroke="none" font-family="Arial" font-size="12px" font-style="normal" font-weight="normal" text-decoration="none" x="0" y="31">Сообщение о проигрыше.</text></g><g transform="matrix(1,0,0,1,1497.0151515151515,444.5909090909091)"><g transform="translate(0,0)"><g transform="translate(-1676.5151515151515,-446.0909090909091) translate(179.5,1.5) matrix(1,0,0,1,0,0)"><g><path fill="none" stroke="#000000" d="M 1681.5151515151515 449.0909090909091 L 1681.5151515151515 489.0909090909091 Q 1681.5151515151515 499.0909090909091 1671.5151515151515 499.0909090909091 L 1511.5151515151515 499.0909090909091 Q 1501.5151515151515 499.0909090909091 1501.5151515151515 509.0909090909091 L 1501.5151515151515 549.0909090909091" stroke-miterlimit="10" stroke-width="2"/></g></g></g></g><g transform="matrix(1,0,0,1,1677.0151515151515,444.5909090909091)"><g transform="translate(0,0)"><g transform="translate(-1680.5151515151515,-452.0909090909091) translate(3.5,7.5) matrix(1,0,0,1,0,0)"><g><path fill="none" stroke="#000000" d="M 1681.5151515151515 449.0909090909091 L 1681.5151515151515 489.0909090909091 Q 1681.5151515151515 499.0909090909091 1691.5151515151515 499.0909090909091 L 1851.5151515151515 499.0909090909091 Q 1861.5151515151515 499.0909090909091 1861.5151515151515 509.0909090909091 L 1861.5151515151515 549.0909090909091" stroke-miterlimit="10" stroke-width="2"/></g></g></g></g><g transform="translate(0,0) matrix(1,0,0,1,1231.5151515151515,59.09090909090911)"><g><g transform="translate(0,0) scale(3,1.5299999999999998)"><g><path fill="#FFFFFF" stroke="none" d="M 0 0 L 100 0 Q 100 0 100 0 L 100 100 Q 100 100 100 100 L 0 100 Q 0 100 0 100 L 0 0 Q 0 0 0 0 Z"/><g transform="scale(0.3333333333333333,0.6535947712418302)"><path fill="none" stroke="none" d="M 0 0 L 300 0 Q 300 0 300 0 L 300 152.99999999999997 Q 300 152.99999999999997 300 152.99999999999997 L 0 152.99999999999997 Q 0 152.99999999999997 0 152.99999999999997 L 0 0 Q 0 0 0 0 Z"/><path fill="none" stroke="#333333" d="M 0 0 M 0 0 L 300 0 Q 300 0 300 0 L 300 152.99999999999997 Q 300 152.99999999999997 300 152.99999999999997 L 0 152.99999999999997 Q 0 152.99999999999997 0 152.99999999999997 L 0 0 Q 0 0 0 0 Z" stroke-miterlimit="10" stroke-width="2"/></g></g></g></g></g><g transform="scale(1,1) matrix(1,0,0,1,1237.5151515151515,59.09090909090911) translate(8,30.499999999999986)"><text fill="#000000" stroke="none" font-family="Arial" font-size="20px" font-style="normal" font-weight="bold" text-decoration="none" x="101.00000000000003" y="20">&#160;Option</text><text fill="#000000" stroke="none" font-family="Arial" font-size="12px" font-style="normal" font-weight="normal" text-decoration="none" x="0" y="31">Описывает опцию меню.</text><text fill="#000000" stroke="none" font-family="Arial" font-size="12px" font-style="normal" font-weight="normal" text-decoration="none" x="0" y="45">Основные методы:</text><text fill="#000000" stroke="none" font-family="Arial" font-size="12px" font-style="normal" font-weight="normal" text-decoration="none" x="0" y="59">set_handler(handler) - назначить обработчик </text><text fill="#000000" stroke="none" font-family="Arial" font-size="12px" font-style="normal" font-weight="normal" text-decoration="none" x="0" y="73">нажатия</text><text fill="#000000" stroke="none" font-family="Arial" font-size="12px" font-style="normal" font-weight="normal" text-decoration="none" x="0" y="87">onclick() - вызывается при нажатии</text></g><g transform="scale(1,1) matrix(1,0,0,1,921.5151515151515,11.590909090909093) translate(2,0)"><text fill="#000000" stroke="none" font-family="Arial" font-size="20px" font-style="italic" font-weight="bold" text-decoration="none" x="28.5" y="20">Иерархия </text><text fill="#000000" stroke="none" font-family="Arial" font-size="20px" font-style="italic" font-weight="bold" text-decoration="none" x="40.5" y="40">классов</text></g><g transform="translate(0,0) matrix(1,0,0,1,471.5151515151515,59.09090909090908)"><g><g transform="translate(0,0) scale(3,1.5299999999999998)"><g><path fill="#FFFFFF" stroke="none" d="M 0 0 L 100 0 Q 100 0 100 0 L 100 100 Q 100 100 100 100 L 0 100 Q 0 100 0 100 L 0 0 Q 0 0 0 0 Z"/><g transform="scale(0.3333333333333333,0.6535947712418302)"><path fill="none" stroke="none" d="M 0 0 L 300 0 Q 300 0 300 0 L 300 152.99999999999997 Q 300 152.99999999999997 300 152.99999999999997 L 0 152.99999999999997 Q 0 152.99999999999997 0 152.99999999999997 L 0 0 Q 0 0 0 0 Z"/><path fill="none" stroke="#333333" d="M 0 0 M 0 0 L 300 0 Q 300 0 300 0 L 300 152.99999999999997 Q 300 152.99999999999997 300 152.99999999999997 L 0 152.99999999999997 Q 0 152.99999999999997 0 152.99999999999997 L 0 0 Q 0 0 0 0 Z" stroke-miterlimit="10" stroke-width="2"/></g></g></g></g></g><g transform="scale(1,1) matrix(1,0,0,1,477.5151515151515,59.09090909090908) translate(8,51.499999999999986)"><text fill="#000000" stroke="none" font-family="Arial" font-size="20px" font-style="normal" font-weight="bold" text-decoration="none" x="66.50000000000003" y="20">ArkanoidGame</text><text fill="#000000" stroke="none" font-family="Arial" font-size="12px" font-style="normal" font-weight="normal" text-decoration="none" x="0" y="31">Основной класс игры. В нем описывается </text><text fill="#000000" stroke="none" font-family="Arial" font-size="12px" font-style="normal" font-weight="normal" text-decoration="none" x="0" y="45">основной цикл игры и обработчик событий.</text></g><g transform="scale(1,1) matrix(1,0,0,1,913.5151515151515,739.0909090909091) translate(2,0)"><text fill="#000000" stroke="none" font-family="Arial" font-size="20px" font-style="italic" font-weight="bold" text-decoration="none" x="1.5" y="20">Делегирование</text></g><g transform="translate(0,0) matrix(1,0,0,1,551.5151515151515,1079.090909090909)"><g><g transform="translate(0,0) scale(2.2,0.5)"><g><path fill="#FFFFFF" stroke="none" d="M 0 0 L 100 0 Q 100 0 100 0 L 100 100 Q 100 100 100 100 L 0 100 Q 0 100 0 100 L 0 0 Q 0 0 0 0 Z"/><g transform="scale(0.45454545454545453,2)"><path fill="none" stroke="none" d="M 0 0 L 220.00000000000003 0 Q 220.00000000000003 0 220.00000000000003 0 L 220.00000000000003 50 Q 220.00000000000003 50 220.00000000000003 50 L 0 50 Q 0 50 0 50 L 0 0 Q 0 0 0 0 Z"/><path fill="none" stroke="#333333" d="M 0 0 M 0 0 L 220.00000000000003 0 Q 220.00000000000003 0 220.00000000000003 0 L 220.00000000000003 50 Q 220.00000000000003 50 220.00000000000003 50 L 0 50 Q 0 50 0 50 L 0 0 Q 0 0 0 0 Z" stroke-miterlimit="10" stroke-width="2"/></g></g></g></g></g><g transform="scale(1,1) matrix(1,0,0,1,555.9151515151515,1079.090909090909) translate(8,14)"><text fill="#000000" stroke="none" font-family="Arial" font-size="20px" font-style="normal" font-weight="bold" text-decoration="none" x="28.10000000000005" y="20">ArkanoidGame</text></g><g transform="translate(0,0) matrix(1,0,0,1,891.5151515151515,801.0909090909091)"><g><g transform="translate(0,0) scale(2.4,0.5000000000000001)"><g><path fill="#FFFFFF" stroke="none" d="M 0 0 L 100 0 Q 100 0 100 0 L 100 100 Q 100 100 100 100 L 0 100 Q 0 100 0 100 L 0 0 Q 0 0 0 0 Z"/><g transform="scale(0.4166666666666667,1.9999999999999996)"><path fill="none" stroke="none" d="M 0 0 L 240 0 Q 240 0 240 0 L 240 50.000000000000014 Q 240 50.000000000000014 240 50.000000000000014 L 0 50.000000000000014 Q 0 50.000000000000014 0 50.000000000000014 L 0 0 Q 0 0 0 0 Z"/><path fill="none" stroke="#333333" d="M 0 0 M 0 0 L 240 0 Q 240 0 240 0 L 240 50.000000000000014 Q 240 50.000000000000014 240 50.000000000000014 L 0 50.000000000000014 Q 0 50.000000000000014 0 50.000000000000014 L 0 0 Q 0 0 0 0 Z" stroke-miterlimit="10" stroke-width="2"/></g></g></g></g></g><g transform="scale(1,1) matrix(1,0,0,1,896.3151515151515,801.0909090909091) translate(8,14.000000000000004)"><text fill="#000000" stroke="none" font-family="Arial" font-size="20px" font-style="normal" font-weight="bold" text-decoration="none" x="21.70000000000006" y="20">StaticGameObject</text></g><g transform="translate(0,0) matrix(1,0,0,1,891.5151515151515,869.0909090909091)"><g><g transform="translate(0,0) scale(2.4,0.5)"><g><path fill="#FFFFFF" stroke="none" d="M 0 0 L 100 0 Q 100 0 100 0 L 100 100 Q 100 100 100 100 L 0 100 Q 0 100 0 100 L 0 0 Q 0 0 0 0 Z"/><g transform="scale(0.4166666666666667,2)"><path fill="none" stroke="none" d="M 0 0 L 240 0 Q 240 0 240 0 L 240 50 Q 240 50 240 50 L 0 50 Q 0 50 0 50 L 0 0 Q 0 0 0 0 Z"/><path fill="none" stroke="#333333" d="M 0 0 M 0 0 L 240 0 Q 240 0 240 0 L 240 50 Q 240 50 240 50 L 0 50 Q 0 50 0 50 L 0 0 Q 0 0 0 0 Z" stroke-miterlimit="10" stroke-width="2"/></g></g></g></g></g><g transform="scale(1,1) matrix(1,0,0,1,896.3151515151515,869.0909090909091) translate(8,14)"><text fill="#000000" stroke="none" font-family="Arial" font-size="20px" font-style="normal" font-weight="bold" text-decoration="none" x="8.20000000000006" y="20">Dynamic</text><text fill="#000000" stroke="none" font-family="Arial" font-size="20px" font-style="normal" font-weight="bold" text-decoration="none" x="89.20000000000006" y="20">GameObject</text></g><g transform="translate(0,0) matrix(1,0,0,1,891.5151515151515,1006.090909090909)"><g><g transform="translate(0,0) scale(2.4,0.5)"><g><path fill="#FFFFFF" stroke="none" d="M 0 0 L 100 0 Q 100 0 100 0 L 100 100 Q 100 100 100 100 L 0 100 Q 0 100 0 100 L 0 0 Q 0 0 0 0 Z"/><g transform="scale(0.4166666666666667,2)"><path fill="none" stroke="none" d="M 0 0 L 240 0 Q 240 0 240 0 L 240 50 Q 240 50 240 50 L 0 50 Q 0 50 0 50 L 0 0 Q 0 0 0 0 Z"/><path fill="none" stroke="#333333" d="M 0 0 M 0 0 L 240 0 Q 240 0 240 0 L 240 50 Q 240 50 240 50 L 0 50 Q 0 50 0 50 L 0 0 Q 0 0 0 0 Z" stroke-miterlimit="10" stroke-width="2"/></g></g></g></g></g><g transform="scale(1,1) matrix(1,0,0,1,896.3151515151515,1006.090909090909) translate(8,14)"><text fill="#000000" stroke="none" font-family="Arial" font-size="20px" font-style="normal" font-weight="bold" text-decoration="none" x="80.70000000000005" y="20">Block</text></g><g transform="translate(0,0) matrix(1,0,0,1,891.5151515151515,1079.090909090909)"><g><g transform="translate(0,0) scale(2.4,0.5)"><g><path fill="#FFFFFF" stroke="none" d="M 0 0 L 100 0 Q 100 0 100 0 L 100 100 Q 100 100 100 100 L 0 100 Q 0 100 0 100 L 0 0 Q 0 0 0 0 Z"/><g transform="scale(0.4166666666666667,2)"><path fill="none" stroke="none" d="M 0 0 L 240 0 Q 240 0 240 0 L 240 50 Q 240 50 240 50 L 0 50 Q 0 50 0 50 L 0 0 Q 0 0 0 0 Z"/><path fill="none" stroke="#333333" d="M 0 0 M 0 0 L 240 0 Q 240 0 240 0 L 240 50 Q 240 50 240 50 L 0 50 Q 0 50 0 50 L 0 0 Q 0 0 0 0 Z" stroke-miterlimit="10" stroke-width="2"/></g></g></g></g></g><g transform="scale(1,1) matrix(1,0,0,1,896.3151515151515,1079.090909090909) translate(8,14)"><text fill="#000000" stroke="none" font-family="Arial" font-size="20px" font-style="normal" font-weight="bold" text-decoration="none" x="81.20000000000005" y="20">Menu</text></g><g transform="translate(0,0) matrix(1,0,0,1,891.5151515151515,934.0909090909091)"><g><g transform="translate(0,0) scale(2.4,0.5)"><g><path fill="#FFFFFF" stroke="none" d="M 0 0 L 100 0 Q 100 0 100 0 L 100 100 Q 100 100 100 100 L 0 100 Q 0 100 0 100 L 0 0 Q 0 0 0 0 Z"/><g transform="scale(0.4166666666666667,2)"><path fill="none" stroke="none" d="M 0 0 L 240 0 Q 240 0 240 0 L 240 50 Q 240 50 240 50 L 0 50 Q 0 50 0 50 L 0 0 Q 0 0 0 0 Z"/><path fill="none" stroke="#333333" d="M 0 0 M 0 0 L 240 0 Q 240 0 240 0 L 240 50 Q 240 50 240 50 L 0 50 Q 0 50 0 50 L 0 0 Q 0 0 0 0 Z" stroke-miterlimit="10" stroke-width="2"/></g></g></g></g></g><g transform="scale(1,1) matrix(1,0,0,1,896.3151515151515,934.0909090909091) translate(8,14)"><text fill="#000000" stroke="none" font-family="Arial" font-size="20px" font-style="normal" font-weight="bold" text-decoration="none" x="37.700000000000045" y="20">LivesIndecator</text></g><g transform="translate(0,0) matrix(1,0,0,1,891.5151515151515,1149.090909090909)"><g><g transform="translate(0,0) scale(2.4,0.5)"><g><path fill="#FFFFFF" stroke="none" d="M 0 0 L 100 0 Q 100 0 100 0 L 100 100 Q 100 100 100 100 L 0 100 Q 0 100 0 100 L 0 0 Q 0 0 0 0 Z"/><g transform="scale(0.4166666666666667,2)"><path fill="none" stroke="none" d="M 0 0 L 240 0 Q 240 0 240 0 L 240 50 Q 240 50 240 50 L 0 50 Q 0 50 0 50 L 0 0 Q 0 0 0 0 Z"/><path fill="none" stroke="#333333" d="M 0 0 M 0 0 L 240 0 Q 240 0 240 0 L 240 50 Q 240 50 240 50 L 0 50 Q 0 50 0 50 L 0 0 Q 0 0 0 0 Z" stroke-miterlimit="10" stroke-width="2"/></g></g></g></g></g><g transform="scale(1,1) matrix(1,0,0,1,896.3151515151515,1149.090909090909) translate(8,14)"><text fill="#000000" stroke="none" font-family="Arial" font-size="20px" font-style="normal" font-weight="bold" text-decoration="none" x="63.700000000000045" y="20">WinLabel</text></g><g transform="translate(0,0) matrix(1,0,0,1,891.5151515151515,1219.090909090909)"><g><g transform="translate(0,0) scale(2.4,0.5)"><g><path fill="#FFFFFF" stroke="none" d="M 0 0 L 100 0 Q 100 0 100 0 L 100 100 Q 100 100 100 100 L 0 100 Q 0 100 0 100 L 0 0 Q 0 0 0 0 Z"/><g transform="scale(0.4166666666666667,2)"><path fill="none" stroke="none" d="M 0 0 L 240 0 Q 240 0 240 0 L 240 50 Q 240 50 240 50 L 0 50 Q 0 50 0 50 L 0 0 Q 0 0 0 0 Z"/><path fill="none" stroke="#333333" d="M 0 0 M 0 0 L 240 0 Q 240 0 240 0 L 240 50 Q 240 50 240 50 L 0 50 Q 0 50 0 50 L 0 0 Q 0 0 0 0 Z" stroke-miterlimit="10" stroke-width="2"/></g></g></g></g></g><g transform="scale(1,1) matrix(1,0,0,1,896.3151515151515,1219.090909090909) translate(8,14)"><text fill="#000000" stroke="none" font-family="Arial" font-size="20px" font-style="normal" font-weight="bold" text-decoration="none" x="58.700000000000045" y="20">LoseLabel</text></g><g transform="translate(0,0) matrix(1,0,0,1,891.5151515151515,1289.090909090909)"><g><g transform="translate(0,0) scale(2.4,0.5)"><g><path fill="#FFFFFF" stroke="none" d="M 0 0 L 100 0 Q 100 0 100 0 L 100 100 Q 100 100 100 100 L 0 100 Q 0 100 0 100 L 0 0 Q 0 0 0 0 Z"/><g transform="scale(0.4166666666666667,2)"><path fill="none" stroke="none" d="M 0 0 L 240 0 Q 240 0 240 0 L 240 50 Q 240 50 240 50 L 0 50 Q 0 50 0 50 L 0 0 Q 0 0 0 0 Z"/><path fill="none" stroke="#333333" d="M 0 0 M 0 0 L 240 0 Q 240 0 240 0 L 240 50 Q 240 50 240 50 L 0 50 Q 0 50 0 50 L 0 0 Q 0 0 0 0 Z" stroke-miterlimit="10" stroke-width="2"/></g></g></g></g></g><g transform="scale(1,1) matrix(1,0,0,1,896.3151515151515,1289.090909090909) translate(8,14)"><text fill="#000000" stroke="none" font-family="Arial" font-size="20px" font-style="normal" font-weight="bold" text-decoration="none" x="89.70000000000005" y="20">Ball</text></g><g transform="translate(0,0) matrix(1,0,0,1,891.5151515151515,1359.090909090909)"><g><g transform="translate(0,0) scale(2.4,0.5)"><g><path fill="#FFFFFF" stroke="none" d="M 0 0 L 100 0 Q 100 0 100 0 L 100 100 Q 100 100 100 100 L 0 100 Q 0 100 0 100 L 0 0 Q 0 0 0 0 Z"/><g transform="scale(0.4166666666666667,2)"><path fill="none" stroke="none" d="M 0 0 L 240 0 Q 240 0 240 0 L 240 50 Q 240 50 240 50 L 0 50 Q 0 50 0 50 L 0 0 Q 0 0 0 0 Z"/><path fill="none" stroke="#333333" d="M 0 0 M 0 0 L 240 0 Q 240 0 240 0 L 240 50 Q 240 50 240 50 L 0 50 Q 0 50 0 50 L 0 0 Q 0 0 0 0 Z" stroke-miterlimit="10" stroke-width="2"/></g></g></g></g></g><g transform="scale(1,1) matrix(1,0,0,1,896.3151515151515,1359.090909090909) translate(8,14)"><text fill="#000000" stroke="none" font-family="Arial" font-size="20px" font-style="normal" font-weight="bold" text-decoration="none" x="81.20000000000005" y="20">Panel</text></g><g transform="translate(0,0) matrix(1,0,0,1,1221.5151515151515,1079.090909090909)"><g><g transform="translate(0,0) scale(2.4,0.5)"><g><path fill="#FFFFFF" stroke="none" d="M 0 0 L 100 0 Q 100 0 100 0 L 100 100 Q 100 100 100 100 L 0 100 Q 0 100 0 100 L 0 0 Q 0 0 0 0 Z"/><g transform="scale(0.4166666666666667,2)"><path fill="none" stroke="none" d="M 0 0 L 240 0 Q 240 0 240 0 L 240 50 Q 240 50 240 50 L 0 50 Q 0 50 0 50 L 0 0 Q 0 0 0 0 Z"/><path fill="none" stroke="#333333" d="M 0 0 M 0 0 L 240 0 Q 240 0 240 0 L 240 50 Q 240 50 240 50 L 0 50 Q 0 50 0 50 L 0 0 Q 0 0 0 0 Z" stroke-miterlimit="10" stroke-width="2"/></g></g></g></g></g><g transform="scale(1,1) matrix(1,0,0,1,1226.3151515151515,1079.090909090909) translate(8,14)"><text fill="#000000" stroke="none" font-family="Arial" font-size="20px" font-style="normal" font-weight="bold" text-decoration="none" x="75.20000000000005" y="20">Option</text></g><g transform="matrix(1,0,0,1,767.0151515151515,889.5909090909091)"><g transform="translate(0,0)"><g transform="translate(-823.5151515151515,-1102.4242424242423) translate(56.5,212.83333333333314) matrix(1,0,0,1,0,0)"><g><path fill="none" stroke="#000000" d="M 771.5151515151515 1104.090909090909 L 821.5151515151515 1104.090909090909 Q 831.5151515151515 1104.090909090909 831.5151515151515 1094.090909090909 L 831.5151515151515 904.0909090909091 Q 831.5151515151515 894.0909090909091 841.5151515151515 894.0909090909091 L 891.5151515151515 894.0909090909091" stroke-miterlimit="10" stroke-width="2"/></g></g></g></g><g transform="matrix(1,0,0,1,767.0151515151515,954.5909090909091)"><g transform="translate(0,0)"><g transform="translate(-818.1818181818182,-1107.7575757575758) translate(51.16666666666674,153.16666666666663) matrix(1,0,0,1,0,0)"><g><path fill="none" stroke="#000000" d="M 771.5151515151515 1104.090909090909 L 821.5151515151515 1104.090909090909 Q 831.5151515151515 1104.090909090909 831.5151515151515 1094.090909090909 L 831.5151515151515 969.0909090909091 Q 831.5151515151515 959.0909090909091 841.5151515151515 959.0909090909091 L 891.5151515151515 959.0909090909091" stroke-miterlimit="10" stroke-width="2"/></g></g></g></g><g transform="matrix(1,0,0,1,767.0151515151515,1026.590909090909)"><g transform="translate(0,0)"><g transform="translate(-819.5151515151515,-1109.090909090909) translate(52.5,82.5) matrix(1,0,0,1,0,0)"><g><path fill="none" stroke="#000000" d="M 771.5151515151515 1104.090909090909 L 821.5151515151515 1104.090909090909 Q 831.5151515151515 1104.090909090909 831.5151515151515 1094.090909090909 L 831.5151515151515 1041.090909090909 Q 831.5151515151515 1031.090909090909 841.5151515151515 1031.090909090909 L 891.5151515151515 1031.090909090909" stroke-miterlimit="10" stroke-width="2"/></g></g></g></g><g transform="matrix(1,0,0,1,767.0151515151515,1099.590909090909)"><g transform="translate(0,0)"><g transform="translate(-820.8484848484848,-1109.090909090909) translate(53.83333333333326,9.5) matrix(1,0,0,1,0,0)"><g><path fill="none" stroke="#000000" d="M 771.5151515151515 1104.090909090909 L 801.5151515151515 1104.090909090909 Q 811.5151515151515 1104.090909090909 821.5151515151515 1104.090909090909 L 841.5151515151515 1104.090909090909 Q 851.5151515151515 1104.090909090909 861.5151515151515 1104.090909090909 L 891.5151515151515 1104.090909090909" stroke-miterlimit="10" stroke-width="2"/></g></g></g></g><g transform="matrix(1,0,0,1,767.0151515151515,1099.590909090909)"><g transform="translate(0,0)"><g transform="translate(-825.1151515151514,-1104.290909090909) translate(58.09999999999991,4.7000000000000455) matrix(1,0,0,1,0,0)"><g><path fill="none" stroke="#000000" d="M 771.5151515151515 1104.090909090909 L 821.5151515151515 1104.090909090909 Q 831.5151515151515 1104.090909090909 831.5151515151515 1114.090909090909 L 831.5151515151515 1164.090909090909 Q 831.5151515151515 1174.090909090909 841.5151515151515 1174.090909090909 L 891.5151515151515 1174.090909090909" stroke-miterlimit="10" stroke-width="2"/></g></g></g></g><g transform="matrix(1,0,0,1,767.0151515151515,1099.590909090909)"><g transform="translate(0,0)"><g transform="translate(-819.5151515151515,-1105.890909090909) translate(52.5,6.2999999999999545) matrix(1,0,0,1,0,0)"><g><path fill="none" stroke="#000000" d="M 771.5151515151515 1104.090909090909 L 821.5151515151515 1104.090909090909 Q 831.5151515151515 1104.090909090909 831.5151515151515 1114.090909090909 L 831.5151515151515 1234.090909090909 Q 831.5151515151515 1244.090909090909 841.5151515151515 1244.090909090909 L 891.5151515151515 1244.090909090909" stroke-miterlimit="10" stroke-width="2"/></g></g></g></g><g transform="matrix(1,0,0,1,767.0151515151515,1099.590909090909)"><g transform="translate(0,0)"><g transform="translate(-817.9151515151516,-1102.690909090909) translate(50.90000000000009,3.099999999999909) matrix(1,0,0,1,0,0)"><g><path fill="none" stroke="#000000" d="M 771.5151515151515 1104.090909090909 L 821.5151515151515 1104.090909090909 Q 831.5151515151515 1104.090909090909 831.5151515151515 1114.090909090909 L 831.5151515151515 1304.090909090909 Q 831.5151515151515 1314.090909090909 841.5151515151515 1314.090909090909 L 891.5151515151515 1314.090909090909" stroke-miterlimit="10" stroke-width="2"/></g></g></g></g><g transform="matrix(1,0,0,1,767.0151515151515,1099.590909090909)"><g transform="translate(0,0)"><g transform="translate(-816.3151515151515,-1101.890909090909) translate(49.299999999999955,2.2999999999999545) matrix(1,0,0,1,0,0)"><g><path fill="none" stroke="#000000" d="M 771.5151515151515 1104.090909090909 L 821.5151515151515 1104.090909090909 Q 831.5151515151515 1104.090909090909 831.5151515151515 1114.090909090909 L 831.5151515151515 1374.090909090909 Q 831.5151515151515 1384.090909090909 841.5151515151515 1384.090909090909 L 891.5151515151515 1384.090909090909" stroke-miterlimit="10" stroke-width="2"/></g></g></g></g><g transform="matrix(1,0,0,1,767.0151515151515,821.5909090909091)"><g transform="translate(0,0)"><g transform="translate(-823.5151515151515,-1108.290909090909) translate(56.5,286.69999999999993) matrix(1,0,0,1,0,0)"><g><path fill="none" stroke="#000000" d="M 771.5151515151515 1104.090909090909 L 821.5151515151515 1104.090909090909 Q 831.5151515151515 1104.090909090909 831.5151515151515 1094.090909090909 L 831.5151515151515 836.0909090909091 Q 831.5151515151515 826.0909090909091 841.5151515151515 826.0909090909091 L 891.5151515151515 826.0909090909091" stroke-miterlimit="10" stroke-width="2"/></g></g></g></g><g transform="matrix(1,0,0,1,1127.0151515151515,1099.590909090909)"><g transform="translate(0,0)"><g transform="translate(-2082.181818181818,-853.0909090909091) translate(955.1666666666665,-246.4999999999999) matrix(1,0,0,1,0,0)"><g><path fill="none" stroke="#000000" d="M 1221.5151515151515 1104.090909090909 L 1201.5151515151515 1104.090909090909 Q 1191.5151515151515 1104.090909090909 1181.5151515151515 1104.090909090909 L 1171.5151515151515 1104.090909090909 Q 1161.5151515151515 1104.090909090909 1151.5151515151515 1104.090909090909 L 1131.5151515151515 1104.090909090909" stroke-miterlimit="10" stroke-width="2"/></g></g></g></g></g></svg>